<svg t="1707497440395" class="icon" viewBox="0 0 1024 1024" version="1.1" xmlns="http://www.w3.org/2000/svg"
     p-id="11433" width="200" height="200">
  <path
    d="M579.584 511.5904c-11.6992 0-23.3728 10.8288-23.3728 24.192 0 10.8288 11.6736 21.6576 23.3472 21.6576 17.536 0 30.0544-10.8288 30.0544-21.6576 0-13.3632-12.5184-24.192-30.0544-24.192z m-76.7488-112.64c18.3552 0 30.0288-11.648 30.0288-29.184 0-18.3552-11.6736-29.184-30.0288-29.184-17.536 0-34.2016 10.8288-34.2016 29.184 0 17.536 16.6656 29.184 34.2016 29.184zM512 0C229.248 0 0 229.2224 0 512s229.248 512 512 512c282.7776 0 512-229.2224 512-512S794.7776 0 512 0z m-96.768 641.7152c-30.848 0-53.376-4.992-82.5856-13.3632l-84.2496 42.5728 24.192-71.7568c-59.2384-41.7024-94.2592-94.2592-94.2592-158.4896 0-113.4592 106.752-200.192 236.9024-200.192 115.1232 0 217.728 68.3776 237.7472 165.1712a115.0208 115.0208 0 0 0-22.528-2.5088c-113.4336 0-201.0368 85.0688-201.0368 187.6736 0 17.536 2.5088 33.3824 6.656 50.0736-6.656 0.8192-14.1568 0.8192-20.8384 0.8192zM763.136 723.456l16.6656 60.0832-63.3856-35.8656c-24.192 4.992-47.5648 12.4928-71.7568 12.4928-111.7696 0-200.192-76.7232-200.192-171.8272s88.4224-171.8528 200.192-171.8528c105.9584 0 201.0368 76.7488 201.0368 171.8528 0 53.376-35.84 100.9152-82.56 135.1168z m-425.472-382.8992c-17.5104 0-35.84 10.8544-35.84 29.184 0 17.536 18.3296 29.2352 35.84 29.2352 16.7168 0 30.0544-11.6992 30.0544-29.2096 0-18.3552-13.3376-29.184-30.0288-29.184z m372.8896 171.008c-12.4928 0-23.3472 10.8544-23.3472 24.2176 0 10.8288 10.8544 21.6576 23.3472 21.6576 16.6912 0 29.184-10.8288 29.184-21.6576 0-13.3632-12.4928-24.192-29.184-24.192z"
    fill="#4CBD63" p-id="11434"></path>
</svg>
